<svg width="103" height="80" viewBox="0 0 103 80" fill="none" xmlns="http://www.w3.org/2000/svg">
<g clip-path="url(#clip0_329_442)">
<path d="M50.4635 2.60936C50.4635 1.73745 50.0955 1.00064 49.3473 0.515565C48.9977 0.288379 48.5868 0.165577 48.2004 -0.00634766C47.9121 -0.00634766 47.63 -0.00634766 47.3417 -0.00634766C47.3233 0.0120728 47.3049 0.0489137 47.2804 0.0489137C46.0476 0.263819 45.1277 1.43045 45.1277 2.72602C45.1399 12.0406 45.1338 21.3552 45.1338 30.6698C45.1338 40.6967 45.1338 50.7297 45.1338 60.7566C45.1338 61.4872 45.4282 62.1258 45.9495 62.6109C46.5567 63.1758 47.2865 63.4337 48.1513 63.3231C49.4515 63.1574 50.4574 62.0276 50.4574 60.732C50.4635 50.1832 50.4635 39.6283 50.4635 29.0795C50.4696 20.2561 50.4696 11.4327 50.4635 2.60936Z" fill="black"/>
<path d="M102.571 26.5008C102.282 26.4517 102.117 26.5683 101.97 26.8139C101.62 27.3972 101.24 27.956 100.853 28.5577C100.78 28.4779 100.712 28.4165 100.669 28.3428C100.363 27.8639 100.038 27.3911 99.7556 26.8999C99.5716 26.5745 99.3385 26.4762 98.9828 26.4946C98.7068 26.5069 98.6393 26.5929 98.6455 26.8508C98.6577 27.9744 98.6393 29.0981 98.6516 30.2217C98.6577 31.0015 98.4737 30.9217 99.3692 30.9094C99.3876 30.9094 99.3998 30.891 99.4612 30.8603C99.4612 29.884 99.4612 28.8832 99.4612 27.8148C99.9395 28.527 100.369 29.1717 100.829 29.8533C101.289 29.1656 101.718 28.5209 102.154 27.8823C102.172 27.8885 102.19 27.8946 102.209 27.8946C102.209 27.9928 102.209 28.0849 102.209 28.1832C102.209 28.9998 102.215 29.8165 102.203 30.6331C102.203 30.8419 102.264 30.9401 102.479 30.9217C102.65 30.9094 102.828 30.9217 103 30.9217C103 29.4481 103 27.9744 103 26.5069C102.859 26.5069 102.712 26.5253 102.571 26.5008Z" fill="black"/>
<path d="M38.3383 42.6553C38.1911 41.6114 37.9642 40.5922 37.6575 39.5852C37.2037 38.0808 36.5781 36.6441 35.7317 35.3301C35.0632 34.2924 34.3149 33.3038 33.5176 32.3644C32.7265 31.4372 31.8126 30.6267 30.8313 29.896C29.4759 28.889 28.0223 28.054 26.4522 27.4216C25.1582 26.9058 23.8273 26.5251 22.4473 26.3102C21.1409 26.1076 19.8346 25.9418 18.5037 26.0769C17.6696 26.1628 16.8293 26.1874 16.0136 26.3347C15.0446 26.5128 14.0756 26.74 13.1372 27.0347C11.9167 27.4216 10.7575 27.9742 9.6413 28.6189C8.29201 29.3925 7.04085 30.3074 5.94915 31.4126C5.17637 32.1924 4.45266 33.0336 3.77188 33.8994C2.85805 35.0599 2.13433 36.3493 1.56395 37.7124C1.02424 38.9957 0.582649 40.3159 0.374122 41.6974C0.239193 42.5877 0.0797313 43.4842 0.0306661 44.3868C-0.0306653 45.5411 -0.018399 46.7016 0.202394 47.8437C0.404788 48.8937 0.601049 49.9436 0.87704 50.9752C1.2389 52.326 1.84608 53.5786 2.52686 54.8005C3.32416 56.225 4.29933 57.5083 5.41557 58.681C5.95528 59.2398 6.56246 59.731 7.15125 60.2468C8.21228 61.1739 9.41438 61.9108 10.6717 62.5371C12.113 63.2555 13.6217 63.8265 15.2163 64.1151C16.1608 64.287 17.1115 64.4651 18.0682 64.5265C18.9759 64.5879 19.9021 64.5265 20.8159 64.4773C21.5151 64.4344 22.2204 64.3668 22.9073 64.2256C24.8576 63.8265 26.716 63.1818 28.4639 62.2178C30.1996 61.2599 31.7452 60.0687 33.1312 58.6626C33.2907 58.503 33.4379 58.3249 33.6035 58.1407C33.6464 58.1898 33.6587 58.196 33.6587 58.2021C33.6587 59.7372 33.72 61.266 33.4931 62.7949C33.303 64.0721 32.9656 65.3001 32.4443 66.4729C31.5305 68.5298 30.2241 70.2921 28.4823 71.7289C27.4397 72.5885 26.3173 73.3069 25.0723 73.8472C23.2691 74.627 21.3985 75.0445 19.4298 75.0384C18.2216 75.0323 17.1789 75.8059 16.9152 77.0646C16.6147 78.5076 17.7493 80.0181 19.2887 79.9935C20.1535 79.9812 21.0244 79.8953 21.8892 79.8154C23.0177 79.7111 24.1094 79.4286 25.195 79.0909C26.4829 78.6918 27.6911 78.1269 28.8687 77.4699C30.2855 76.684 31.555 75.7015 32.7203 74.5902C33.303 74.0314 33.8243 73.4051 34.3456 72.785C35.1674 71.821 35.836 70.7464 36.4247 69.6289C37.0994 68.3272 37.6268 66.9702 37.9826 65.5457C38.3505 64.0967 38.5713 62.6292 38.5713 61.131C38.5652 56.225 38.5591 51.3129 38.5775 46.4069C38.5836 45.1482 38.5161 43.9017 38.3383 42.6553ZM29.1631 55.6355C26.3971 58.2881 23.0361 59.6328 19.2151 59.6205C15.3083 59.6082 11.9044 58.1837 9.15065 55.4083C6.16381 52.3997 4.77159 48.7094 4.98625 44.4605C5.35424 37.3747 11.2605 31.0074 20.0247 30.9828C23.4409 31.0442 26.9736 32.5731 29.8071 35.6248C32.3339 38.3449 33.6035 41.6237 33.5912 45.3201C33.579 49.3542 32.0825 52.8356 29.1631 55.6355Z" fill="black"/>
<path d="M76.2227 26.0339C70.9482 25.9602 66.3361 27.7961 62.5397 31.474C58.7432 35.152 56.7684 39.708 56.6825 44.9947C56.5966 50.0787 58.2955 54.5671 61.7546 58.3065C65.5633 62.4265 70.3226 64.4773 75.9283 64.5694C81.1905 64.4835 85.7352 62.666 89.4826 58.9451C93.236 55.218 95.1496 50.662 95.1864 45.3999C95.2232 40.1071 93.328 35.502 89.5991 31.7381C85.9376 28.0417 81.4297 26.1076 76.2227 26.0339ZM90.2492 45.7929C90.0284 53.1611 83.9566 59.7986 75.5297 59.6205C71.7639 59.5407 68.4765 58.11 65.8209 55.4329C62.8647 52.4488 61.448 48.8015 61.632 44.5894C61.9447 37.3747 67.9246 30.989 77.2592 30.9828C79.9823 31.0135 83.4721 32.4687 86.2811 35.4037C89.0348 38.2957 90.3657 41.7895 90.2492 45.7929Z" fill="black"/>
<path d="M94.432 27.2438C94.8981 27.2438 95.352 27.2438 95.8365 27.2438C95.8365 28.4902 95.8365 29.6999 95.8365 30.9095C96.0879 30.9095 96.3087 30.9095 96.5663 30.9095C96.5663 29.6876 96.5663 28.478 96.5663 27.2315C97.0508 27.2315 97.5047 27.2315 97.9585 27.2315C97.9585 26.9736 97.9585 26.7587 97.9585 26.5254C96.7748 26.5254 95.6095 26.5254 94.4381 26.5254C94.432 26.7649 94.432 26.9859 94.432 27.2438Z" fill="black"/>
</g>
<defs>
<clipPath id="clip0_329_442">
<rect width="103" height="80" fill="white"/>
</clipPath>
</defs>
</svg>
