<svg width="132" height="63" viewBox="0 0 132 63" fill="none" xmlns="http://www.w3.org/2000/svg">
<path d="M46.6605 29.5239C46.4165 29.3147 46.0852 29.1491 45.6581 29.0096C45.231 28.8789 44.6731 28.8091 43.9844 28.8091C43.2871 28.8091 42.7205 28.8789 42.2933 29.0096C41.8662 29.1404 41.535 29.3147 41.2909 29.5239C41.0555 29.7331 40.8986 29.9598 40.8202 30.2126C40.7417 30.4654 40.6981 30.7094 40.6981 30.9361V31.0668C40.6981 31.3022 40.7417 31.5463 40.8202 31.8078C40.9073 32.0693 41.0642 32.3047 41.3083 32.5226C41.5524 32.7405 41.8836 32.9236 42.3108 33.063C42.7379 33.2025 43.2958 33.2722 43.9844 33.2722C44.6644 33.2722 45.2222 33.2025 45.6494 33.063C46.0765 32.9236 46.4078 32.7492 46.6518 32.5313C46.8959 32.3134 47.0528 32.078 47.14 31.8252C47.2271 31.5637 47.2707 31.3196 47.2707 31.0843V30.9274C47.2707 30.692 47.2271 30.4567 47.1487 30.2039C47.0615 29.9598 46.8959 29.7244 46.6605 29.5239Z" fill="black"/>
<path d="M132 15.1497H115.089C114.583 14.5569 113.964 14.0339 113.189 13.5893C112.012 12.9181 110.504 12.4125 108.656 12.0638C106.808 11.7152 104.594 11.5234 101.987 11.4711L97.3499 11.3926C95.9378 11.3665 94.8133 11.288 93.9677 11.1486C93.1222 11.0091 92.4858 10.8347 92.0326 10.6081C91.588 10.3815 91.3003 10.1374 91.1609 9.86716C91.0214 9.59693 90.9604 9.30927 90.9604 9.01289C90.9604 8.71652 91.0214 8.42885 91.1434 8.14119C91.2655 7.85353 91.5618 7.60074 92.0326 7.38282C92.5033 7.15617 93.2181 6.98183 94.1682 6.84236C95.1184 6.70289 96.4434 6.64187 98.1257 6.64187H98.7185C100.523 6.64187 101.952 6.76391 102.99 7.0167C104.027 7.26078 104.812 7.56587 105.343 7.90583C105.875 8.25451 106.224 8.61191 106.381 8.98674C106.538 9.36157 106.642 9.6841 106.695 9.95433H115.682V9.5795C115.682 8.54218 115.455 7.49614 115.011 6.45881C114.566 5.42149 113.747 4.48878 112.561 3.65194C111.376 2.82383 109.737 2.15262 107.662 1.6296C105.579 1.10658 102.911 0.85379 99.6425 0.85379H97.0797C93.9329 0.85379 91.3875 1.09787 89.4349 1.59473C87.4823 2.0916 85.9481 2.73666 84.8498 3.52119C83.7514 4.31444 83.0018 5.21229 82.6182 6.21474C82.2347 7.21719 82.0429 8.23708 82.0429 9.2744V9.60565C82.0429 10.6953 82.2608 11.7064 82.6967 12.6479C83.1238 13.5806 83.856 14.4087 84.8846 15.1322H78.6345V11.6977H58.5506V7.60946H79.1227V1.33322H50.0167V15.1409H36.9935L48.7178 1.33322H38.9548L30.2291 11.5147L21.6516 1.34194H10.921L22.9766 15.1497H0.373413V47.8122H22.9766L25.6963 50.9329V61.6287H34.3435V50.9416L36.9935 47.8209H50.0167V61.6287H79.4975V55.2042H58.5506V50.6714H78.6345V47.8122H84.8846C84.8933 47.8209 84.9021 47.8209 84.9108 47.8297C85.9481 48.5619 87.3341 49.1459 89.0688 49.5905C90.8035 50.035 92.9566 50.2966 95.5281 50.3663L100.279 50.4796C101.865 50.5319 103.138 50.6191 104.106 50.7586C105.073 50.898 105.797 51.0898 106.294 51.3339C106.79 51.578 107.113 51.8656 107.279 52.1881C107.435 52.5107 107.523 52.8681 107.523 53.2691C107.523 53.6439 107.444 54.0013 107.279 54.35C107.122 54.6986 106.756 55.0124 106.198 55.3001C105.64 55.5878 104.82 55.8057 103.748 55.9713C102.667 56.1369 101.229 56.2154 99.4246 56.2154H98.9016C97.1146 56.2154 95.6937 56.0672 94.6302 55.7708C93.5667 55.4744 92.7386 55.0996 92.1633 54.655C91.5793 54.2105 91.1957 53.7311 91.0127 53.2255C90.8296 52.7199 90.725 52.2579 90.6989 51.8308H81.6768V52.2404C81.6768 52.8594 81.7378 53.5306 81.8598 54.2454C81.9819 54.9601 82.2434 55.6837 82.6356 56.4159C83.0279 57.1481 83.5945 57.8542 84.3267 58.5341C85.059 59.214 86.0178 59.8242 87.2033 60.356C88.3889 60.8877 89.862 61.3148 91.6054 61.6374C93.3488 61.9599 95.4235 62.1168 97.8206 62.1168H100.383C103.853 62.1168 106.642 61.8466 108.778 61.3148C110.905 60.7831 112.544 60.077 113.694 59.1966C114.845 58.3162 115.612 57.3312 115.996 56.2241C116.379 55.1258 116.571 54.0013 116.571 52.8681V52.345C116.571 50.9852 116.301 49.7997 115.751 48.7798C115.568 48.4311 115.333 48.1173 115.072 47.8122H131.983V15.1497H132ZM20.562 35.1028V28.9051H17.0664V26.9873H26.629V28.9051H23.1248V35.1028H20.562ZM49.9295 31.1889C49.9295 31.433 49.9033 31.6945 49.8598 31.9822C49.8162 32.2698 49.729 32.5662 49.5895 32.8713C49.4501 33.1764 49.2496 33.4641 48.9968 33.7517C48.744 34.0394 48.3953 34.2922 47.9769 34.5101C47.5585 34.728 47.0355 34.9111 46.4253 35.0418C45.8064 35.1726 45.0741 35.2423 44.2286 35.2423H43.7579C42.9036 35.2423 42.1627 35.1726 41.5438 35.0418C40.9248 34.9111 40.4105 34.728 39.9921 34.5101C39.5737 34.2922 39.2337 34.0394 38.9722 33.7517C38.7107 33.4641 38.519 33.1764 38.3795 32.8713C38.24 32.5662 38.1528 32.2698 38.1093 31.9822C38.0657 31.6945 38.0395 31.4243 38.0395 31.1889V30.8577C38.0395 30.6136 38.0657 30.3521 38.1093 30.0557C38.1528 29.7593 38.24 29.463 38.3795 29.1753C38.519 28.8789 38.7194 28.5912 38.9722 28.3123C39.2337 28.0334 39.5737 27.7806 39.9921 27.5626C40.4105 27.3447 40.9336 27.1704 41.5438 27.0396C42.1627 26.9089 42.8949 26.8391 43.7579 26.8391H44.2286C45.0828 26.8391 45.8151 26.9089 46.4253 27.0396C47.0355 27.1704 47.5585 27.3447 47.9769 27.5626C48.404 27.7806 48.744 28.0334 48.9968 28.3123C49.2496 28.5912 49.4501 28.8789 49.5895 29.1753C49.729 29.4717 49.8249 29.768 49.8685 30.0557C49.9121 30.3521 49.9382 30.6136 49.9382 30.8577V31.1889H49.9295ZM73.0905 30.8228V31.154C73.0905 31.4417 73.0557 31.7468 72.9947 32.0519C72.9336 32.357 72.8203 32.6621 72.6634 32.9497C72.5065 33.2374 72.2886 33.5163 72.0096 33.7779C71.7307 34.0394 71.382 34.266 70.9636 34.4665C70.5452 34.667 70.0396 34.8152 69.4468 34.9285C68.8541 35.0418 68.1654 35.0941 67.3722 35.0941H61.9764V26.9699H67.3548C68.1393 26.9699 68.8279 27.0222 69.412 27.1268C69.996 27.2314 70.5016 27.3796 70.9287 27.5539C71.3559 27.737 71.7045 27.9549 71.9835 28.199C72.2624 28.4431 72.4803 28.7133 72.646 29.0009C72.8116 29.2886 72.9249 29.585 72.9859 29.8901C73.0644 30.2126 73.0905 30.5177 73.0905 30.8228ZM83.6991 35.1028L87.8048 26.9786H91.0998L95.4409 35.1028H92.7038L91.9367 33.621H87.0203L86.2881 35.1028H83.6991ZM111.306 31.956V35.1028H108.76V31.956L104.419 26.9786H107.575L110.094 29.9685L112.657 26.9786H115.525L111.306 31.956Z" fill="black"/>
<path d="M89.4347 28.7394L87.9266 31.7816H91.0037L89.4347 28.7394Z" fill="black"/>
<path d="M69.8915 29.6373C69.6649 29.4281 69.3336 29.2538 68.9065 29.1143C68.4706 28.9748 67.8953 28.9051 67.1631 28.9051H64.5219V33.1502H67.1631C67.8866 33.1502 68.4619 33.0805 68.8891 32.941C69.3162 32.8016 69.6474 32.6272 69.8741 32.418C70.1007 32.2088 70.2489 31.9822 70.3186 31.7381C70.3884 31.494 70.4232 31.2674 70.4232 31.0582V30.9884C70.4232 30.7879 70.3884 30.5613 70.3274 30.3172C70.2663 30.0731 70.1182 29.8465 69.8915 29.6373Z" fill="black"/>
</svg>
