<svg width="22" height="22" viewBox="0 0 22 22" fill="none" xmlns="http://www.w3.org/2000/svg">
<path d="M15.7513 0H6.248C2.78272 0 0 2.83532 0 6.24821V15.7518C0 19.2172 2.83523 22 6.248 22H15.7513C19.2166 22 21.9993 19.1647 21.9993 15.7518V6.30072C22.0518 2.83532 19.2166 0 15.7513 0ZM11.0259 16.3819C8.08566 16.3819 5.67046 13.9666 5.67046 11.0263C5.67046 8.08592 8.08566 5.67064 11.0259 5.67064C13.9661 5.67064 16.3813 8.08592 16.3813 11.0263C16.3813 13.9666 13.9661 16.3819 11.0259 16.3819ZM16.9064 6.61575C16.0663 6.61575 15.3312 5.93317 15.3312 5.04057C15.3312 4.20048 16.0138 3.46539 16.9064 3.46539C17.7464 3.46539 18.4815 4.14797 18.4815 5.04057C18.4815 5.93317 17.7464 6.61575 16.9064 6.61575Z" fill="white"/>
<path d="M11.0259 7.87598C9.29326 7.87598 7.87564 9.29364 7.87564 11.0263C7.87564 12.759 9.29326 14.1767 11.0259 14.1767C12.7585 14.1767 14.1762 12.759 14.1762 11.0263C14.1762 9.29364 12.7585 7.87598 11.0259 7.87598Z" fill="white"/>
</svg>
