<svg width="109" height="51" viewBox="0 0 109 51" fill="none" xmlns="http://www.w3.org/2000/svg">
<path d="M38.3305 23.8632C38.1284 23.689 37.8541 23.5511 37.5004 23.435C37.1466 23.3261 36.6847 23.2681 36.1144 23.2681C35.5369 23.2681 35.0677 23.3261 34.714 23.435C34.3603 23.5439 34.086 23.689 33.8839 23.8632C33.689 24.0374 33.559 24.2261 33.4941 24.4366C33.4291 24.647 33.393 24.8502 33.393 25.0389V25.1478C33.393 25.3438 33.4291 25.547 33.4941 25.7647C33.5662 25.9825 33.6962 26.1784 33.8983 26.3599C34.1004 26.5413 34.3747 26.6937 34.7284 26.8098C35.0821 26.926 35.5441 26.984 36.1144 26.984C36.6774 26.984 37.1394 26.926 37.4931 26.8098C37.8468 26.6937 38.1212 26.5486 38.3233 26.3671C38.5254 26.1857 38.6553 25.9897 38.7275 25.7792C38.7997 25.5615 38.8358 25.3583 38.8358 25.1623V25.0389C38.8358 24.843 38.7997 24.647 38.7347 24.4366C38.6625 24.2261 38.5254 24.0374 38.3305 23.8632Z" fill="white"/>
<path d="M109 11.9027H94.996C94.5773 11.4091 94.0648 10.9737 93.4224 10.6035C92.4479 10.0447 91.1991 9.62374 89.6687 9.33343C88.1384 9.04312 86.3049 8.88345 84.1465 8.8399L80.3063 8.77458C79.1369 8.75281 78.2057 8.68749 77.5055 8.57137C76.8053 8.45524 76.2783 8.31009 75.903 8.12139C75.5348 7.93269 75.2966 7.72947 75.1811 7.50448C75.0656 7.27949 75.0151 7.03999 75.0151 6.79323C75.0151 6.54646 75.0656 6.30696 75.1667 6.06745C75.2677 5.82795 75.5132 5.61748 75.903 5.43603C76.2928 5.24733 76.8847 5.10218 77.6715 4.98605C78.4583 4.86993 79.5556 4.81913 80.9487 4.81913H81.4396C82.9338 4.81913 84.1177 4.92073 84.9767 5.13121C85.8357 5.33442 86.4854 5.58844 86.9257 5.8715C87.366 6.1618 87.6548 6.45937 87.7847 6.77145C87.9146 7.08354 88.0013 7.35207 88.0446 7.57706H95.4869V7.26498C95.4869 6.40131 95.2992 5.53038 94.9311 4.66671C94.5629 3.80305 93.8844 3.02647 92.9026 2.32973C91.9209 1.64024 90.5638 1.0814 88.8458 0.645937C87.1206 0.210474 84.9117 0 82.2048 0H80.0825C77.4766 0 75.3688 0.203216 73.7519 0.616906C72.1349 1.0306 70.8644 1.56767 69.9549 2.22086C69.0454 2.88131 68.4246 3.62886 68.107 4.4635C67.7893 5.29814 67.6305 6.14729 67.6305 7.01096V7.28675C67.6305 8.19397 67.811 9.03586 68.1719 9.8197C68.5256 10.5963 69.132 11.2858 69.9838 11.8881H64.8081V9.01409H48.1766V5.62473H65.2123V0.399175H41.1096V11.9027H30.3251L40.034 0.399175H31.9493L24.7235 8.86893L17.6205 0.399175H8.73444L18.7177 11.9027H0V39.0973H18.7177L20.9699 41.6956V50.6008H28.1307V41.6956L30.3251 39.0973H41.1096V50.5936H65.5227V45.2446H48.1766V41.4706H64.8081V39.0901H69.9838C69.991 39.0973 69.9982 39.0973 70.0054 39.1046C70.8644 39.7142 72.0122 40.2005 73.4487 40.5707C74.8852 40.9408 76.6681 41.1585 78.7976 41.2166L82.7317 41.3109C84.0455 41.3545 85.0994 41.4271 85.9007 41.5432C86.7019 41.6593 87.3011 41.819 87.7125 42.0222C88.124 42.2254 88.3911 42.4649 88.5282 42.7335C88.6581 43.002 88.7303 43.2996 88.7303 43.6334C88.7303 43.9455 88.6654 44.2431 88.5282 44.5334C88.3983 44.8237 88.0951 45.085 87.6331 45.3245C87.1711 45.564 86.4926 45.7454 85.6047 45.8833C84.7096 46.0212 83.5185 46.0865 82.0243 46.0865H81.5912C80.1114 46.0865 78.9348 45.9631 78.0541 45.7164C77.1734 45.4696 76.4877 45.1575 76.0113 44.7874C75.5276 44.4172 75.21 44.0181 75.0584 43.5971C74.9068 43.1762 74.8202 42.7915 74.7985 42.4359H67.3346V42.777C67.3346 43.2923 67.3851 43.8511 67.4862 44.4463C67.5872 45.0414 67.8038 45.6438 68.1286 46.2534C68.4534 46.8631 68.9226 47.451 69.529 48.0171C70.1354 48.5832 70.9294 49.0912 71.9111 49.5339C72.8928 49.9767 74.1128 50.3323 75.5565 50.6008C77.0002 50.8694 78.7182 51 80.7033 51H82.8256C85.6985 51 88.0085 50.775 89.777 50.3323C91.5383 49.8896 92.8954 49.3017 93.8483 48.5687C94.8011 47.8356 95.4364 47.0155 95.754 46.0938C96.0716 45.1793 96.2304 44.2431 96.2304 43.2996V42.8641C96.2304 41.7319 96.0066 40.7448 95.5518 39.8957C95.4003 39.6054 95.2054 39.3441 94.9888 39.0901H108.993V11.9027H109ZM16.7181 28.5156V23.3553H13.8235V21.7586H21.7423V23.3553H18.8404V28.5156H16.7181ZM41.0374 25.2496C41.0374 25.4528 41.0158 25.6706 40.9797 25.9101C40.9436 26.1496 40.8714 26.3963 40.7559 26.6503C40.6404 26.9044 40.4744 27.1439 40.265 27.3834C40.0557 27.6229 39.7669 27.8334 39.4205 28.0148C39.074 28.1962 38.6409 28.3487 38.1356 28.4575C37.623 28.5664 37.0167 28.6244 36.3165 28.6244H35.9267C35.2193 28.6244 34.6057 28.5664 34.0932 28.4575C33.5807 28.3487 33.1548 28.1962 32.8083 28.0148C32.4618 27.8334 32.1803 27.6229 31.9637 27.3834C31.7471 27.1439 31.5883 26.9044 31.4728 26.6503C31.3573 26.3963 31.2852 26.1496 31.2491 25.9101C31.213 25.6706 31.1913 25.4456 31.1913 25.2496V24.9738C31.1913 24.7706 31.213 24.5529 31.2491 24.3061C31.2852 24.0593 31.3573 23.8126 31.4728 23.5731C31.5883 23.3263 31.7544 23.0868 31.9637 22.8546C32.1803 22.6223 32.4618 22.4118 32.8083 22.2304C33.1548 22.049 33.5879 21.9038 34.0932 21.7949C34.6057 21.6861 35.2121 21.628 35.9267 21.628H36.3165C37.0239 21.628 37.6303 21.6861 38.1356 21.7949C38.6409 21.9038 39.074 22.049 39.4205 22.2304C39.7742 22.4118 40.0557 22.6223 40.265 22.8546C40.4744 23.0868 40.6404 23.3263 40.7559 23.5731C40.8714 23.8198 40.9508 24.0666 40.9869 24.3061C41.023 24.5529 41.0446 24.7706 41.0446 24.9738V25.2496H41.0374ZM60.2171 24.952V25.2278C60.2171 25.4673 60.1882 25.7214 60.1377 25.9754C60.0871 26.2294 59.9933 26.4834 59.8634 26.7229C59.7334 26.9624 59.553 27.1947 59.322 27.4124C59.091 27.6301 58.8022 27.8188 58.4558 27.9858C58.1093 28.1527 57.6906 28.2761 57.1997 28.3704C56.7089 28.4648 56.1386 28.5083 55.4817 28.5083H51.0134V21.7441H55.4673C56.117 21.7441 56.6872 21.7877 57.1709 21.8748C57.6545 21.9619 58.0732 22.0852 58.4269 22.2304C58.7806 22.3828 59.0693 22.5643 59.3003 22.7675C59.5313 22.9707 59.7118 23.1957 59.8489 23.4352C59.9861 23.6747 60.0799 23.9214 60.1305 24.1755C60.1954 24.444 60.2171 24.698 60.2171 24.952ZM69.0021 28.5156L72.402 21.7514H75.1306L78.7254 28.5156H76.4588L75.8236 27.2818H71.7523L71.146 28.5156H69.0021ZM91.8632 25.8955V28.5156H89.7554V25.8955L86.1605 21.7514H88.7736L90.8598 24.2408L92.982 21.7514H95.3569L91.8632 25.8955Z" fill="white"/>
<path d="M73.7518 23.2173L72.503 25.7502H75.0512L73.7518 23.2173Z" fill="white"/>
<path d="M57.5679 23.9578C57.3802 23.7836 57.1059 23.6385 56.7522 23.5223C56.3912 23.4062 55.9148 23.3481 55.3085 23.3481H53.1213V26.8827H55.3085C55.9076 26.8827 56.384 26.8246 56.7377 26.7085C57.0914 26.5923 57.3657 26.4472 57.5534 26.273C57.7411 26.0988 57.8638 25.9101 57.9216 25.7069C57.9793 25.5037 58.0082 25.315 58.0082 25.1408V25.0827C58.0082 24.9158 57.9793 24.7271 57.9288 24.5239C57.8783 24.3279 57.7555 24.1392 57.5679 23.9578Z" fill="white"/>
</svg>
