<svg width="29" height="17" viewBox="0 0 29 17" fill="none" xmlns="http://www.w3.org/2000/svg">
<path fill-rule="evenodd" clip-rule="evenodd" d="M27.7848 17H24.6358C23.4009 17 23.0922 16.032 20.9312 13.9146C19.0171 12.1601 18.2145 11.9181 17.7822 11.9181C17.1648 11.9181 16.9796 12.0996 16.9796 13.0071V15.79C16.9796 16.5765 16.7326 17 14.6951 17C11.2991 17 7.65625 15.0036 5.00126 11.3132C1.04965 5.92883 0 1.81495 0 0.967971C0 0.483985 0.185234 0.0604979 1.11139 0.0604979H4.26033C5.06301 0.0604979 5.37172 0.423487 5.68044 1.27046C7.22403 5.68683 9.87902 9.55872 10.9287 9.55872C11.3609 9.55872 11.5461 9.37722 11.5461 8.34875V3.75089C11.4226 1.63345 10.3112 1.45196 10.3112 0.725978C10.3112 0.362989 10.62 0 11.1139 0H16.1152C16.7943 0 17.0413 0.362989 17.0413 1.14947V7.32028C17.0413 7.98576 17.35 8.22776 17.5353 8.22776C17.9675 8.22776 18.2762 7.98576 19.0171 7.25979C21.3016 4.77936 22.907 0.907473 22.907 0.907473C23.0922 0.423487 23.4627 0 24.2654 0H27.4143C28.4022 0 28.5874 0.483985 28.4022 1.14947C27.97 2.96441 24.1419 8.28825 24.1419 8.28825C23.8331 8.83274 23.6479 9.07473 24.1419 9.67971C24.4506 10.1637 25.562 11.0712 26.3029 11.9181C27.6613 13.4306 28.7109 14.7011 28.9579 15.548C29.1431 16.5765 28.7109 17 27.7848 17Z" fill="white"/>
</svg>
