<svg width="30" height="21" viewBox="0 0 30 21" fill="none" xmlns="http://www.w3.org/2000/svg">
<path d="M29.3627 3.28738C29.0196 2.01168 27.9902 0.981308 26.7157 0.63785C24.3627 0 15 0 15 0C15 0 5.63726 0 3.28432 0.63785C2.00981 0.981308 0.980394 2.01168 0.637256 3.28738C1.51933e-06 5.64252 0 10.5 0 10.5C0 10.5 1.51933e-06 15.3575 0.637256 17.7126C0.980394 18.9883 2.00981 20.0187 3.28432 20.3622C5.63726 21 15 21 15 21C15 21 24.3627 21 26.7157 20.3622C27.9902 20.0187 29.0196 18.9883 29.3627 17.7126C30 15.3575 30 10.5 30 10.5C30 10.5 30 5.59346 29.3627 3.28738ZM12.0098 15.014V5.98598L19.8039 10.5L12.0098 15.014Z" fill="white"/>
</svg>
