<svg width="814" height="128" viewBox="0 0 814 128" fill="none" xmlns="http://www.w3.org/2000/svg">
<path d="M23.6513 28.2422V123.262H98.9262V28.2422L121.895 0.495972H0L23.6513 28.2422Z" fill="#F8C800"/>
<path d="M235.149 123.262H491.523V66.219H309.438V25.9171H484.094V0.495972H235.149V123.262Z" fill="#F8C800"/>
<path d="M538.674 0.650979C547.695 7.16128 559.748 12.354 574.833 16.3067C589.919 20.2594 608.643 22.5845 631.005 23.2045L672.319 24.2121C686.116 24.6771 697.184 25.4521 705.598 26.6922C714.012 27.9322 720.304 29.6373 724.625 31.8074C728.946 33.9775 731.751 36.5351 733.191 39.4028C734.556 42.2704 735.314 45.448 735.314 49.0132C735.314 52.3459 734.632 55.5235 733.191 58.6236C731.827 61.7238 728.643 64.5139 723.791 67.0715C718.94 69.6292 711.814 71.5667 702.49 73.0393C693.09 74.5119 680.582 75.2094 664.89 75.2094H660.342C644.878 75.2094 632.446 73.8918 623.197 71.2567C613.949 68.6216 606.748 65.2889 601.744 61.3363C596.665 57.3836 593.33 53.1209 591.738 48.6257C590.146 44.1305 589.236 40.0228 589.009 36.2251H510.55V39.8678C510.55 45.3705 511.081 51.3383 512.142 57.6936C513.203 64.0489 515.478 70.4817 518.889 76.992C522.3 83.5023 527.228 89.7801 533.595 95.8254C539.963 101.871 548.301 107.296 558.611 112.024C568.921 116.751 581.732 120.549 596.893 123.417C612.054 126.284 630.096 127.679 650.942 127.679H673.229C703.4 127.679 727.657 125.277 746.23 120.549C764.726 115.821 778.978 109.543 788.984 101.716C798.991 93.8878 805.661 85.1299 808.997 75.2869C812.332 65.5215 814 55.5235 814 45.448V40.7978C814 28.7073 811.65 18.1668 806.874 9.09887C805.282 5.99872 803.236 3.2086 800.961 0.495972H538.447C538.523 0.573475 538.598 0.573475 538.674 0.650979Z" fill="#F8C800"/>
</svg>
