<svg width="824" height="117" viewBox="0 0 824 117" fill="none" xmlns="http://www.w3.org/2000/svg">
<path d="M804.257 103.505C795.002 98.0811 783.143 93.9952 768.61 91.1774C754.077 88.3595 736.664 86.8097 716.167 86.3871L679.697 85.753C668.592 85.5417 659.748 84.9077 653.099 83.7806C646.449 82.6534 641.445 81.2445 637.88 79.4129C634.384 77.5813 632.122 75.6088 631.025 73.425C629.928 71.2412 629.448 68.9165 629.448 66.5213C629.448 64.1262 629.928 61.8015 630.888 59.4768C631.848 57.152 634.178 55.1091 637.88 53.348C641.582 51.5164 647.203 50.1075 654.676 48.9803C662.148 47.8532 672.568 47.3601 685.798 47.3601H690.46C704.65 47.3601 715.893 48.3463 724.051 50.3892C732.208 52.3617 738.378 54.8273 742.56 57.5747C746.741 60.3926 749.484 63.2808 750.717 66.31C751.951 69.3392 752.774 71.9457 753.185 74.1295H824V71.1003C824 62.7173 822.218 54.2638 818.721 45.8807C815.225 37.4977 808.781 29.96 799.458 23.1972C790.135 16.5048 777.247 11.0805 760.932 6.85372C744.548 2.62697 723.571 0.584045 697.864 0.584045H677.709C652.962 0.584045 632.944 2.55653 617.589 6.57194C602.233 10.5874 590.168 15.8003 581.53 22.1405C572.893 28.551 566.997 35.807 563.981 43.9082C560.964 52.0095 559.456 60.2517 559.456 68.6347V71.3117C559.456 80.1174 561.17 88.2891 564.598 95.8972C567.957 103.435 573.715 110.127 581.804 115.974H819.338C815.294 111.325 810.358 107.098 804.257 103.505Z" fill="white"/>
<path d="M532.584 88.2186H374.639V55.1795H536.354V4.4585H307.458V116.115H532.584V88.2186Z" fill="white"/>
<path d="M297.243 4.4585H220.465L151.844 86.6688L84.388 4.4585H0L94.808 116.115H205.04L297.243 4.4585Z" fill="white"/>
</svg>
